<svg t="1706365542627" class="icon" viewBox="0 0 1024 1024" version="1.1" xmlns="http://www.w3.org/2000/svg" p-id="1538" width="200" height="200">
  <path d="M278.209 198.442l6.069 525.867c0.319 27.612 22.961 49.738 50.574 49.42a50 50 0 0 0 32.173-12.216l127.94-110.903 130.458 225.959c13.807 23.914 44.386 32.108 68.3 18.301l54.816-31.648c23.915-13.807 32.108-44.386 18.301-68.3l-130.457-225.96 160.128-55.387c26.097-9.026 39.935-37.5 30.908-63.597a50 50 0 0 0-21.718-26.644L353.74 154.877c-23.742-14.102-54.42-6.288-68.523 17.454a50 50 0 0 0-7.008 26.111z" fill="#2d96bd" p-id="1539" stroke="#ffffff" stroke-width="10"/>
</svg>
