<svg t="1706365608834" class="icon" viewBox="0 0 1024 1024" version="1.1" xmlns="http://www.w3.org/2000/svg" p-id="2789" id="mx_n_1706365608835" width="200" height="200">
  <path d="M365.310429 26.883602c29.050571-28.745626 56.175283-42.307471 83.830067 0 20.567382 98.104132 41.122485 196.227707 62.516697 298.343189 68.779316-58.056116 118.650025-17.456539 157.990938 52.755403 54.680237-46.534739 101.982453-48.764518 146.64557 8.410533 9.58631 12.258156 31.043966 25.211135 44.436966 22.878003 80.115475-13.935351 113.309403 32.885913 117.06288 98.329258 5.523794 96.364516 10.354811 195.225892-5.340622 289.5438-12.760598 76.677174-47.722794 206.192639-87.371722 211.942583-160.681204 23.267881-326.991601 7.797575-491.213436 6.609519C316.575587 880.083582 191.951515 798.145603 64.901189 716.45424c-20.514171-13.179129-31.381657-74.714478-18.274159-97.675368 13.73069-24.023079 61.637679-38.471105 94.737463-38.695208 32.31184-0.22615 65.237662 21.753391 97.069572 35.85247 59.365945 26.358258 85.099988 5.421463 84.946492-56.869083-0.318247-129.126609-3.775991-258.39648 1.934044-387.25703 2.159171-48.807496 26.019545-96.631598 39.995828-144.926419z" fill="#2d96bd" p-id="2790" stroke="#ffffff" stroke-width="10"/>
</svg>
